<svg height="512pt" viewBox="0 -46 512 512" width="512pt" xmlns="http://www.w3.org/2000/svg"><path d="m15 420h482c8.289062 0 15-6.710938 15-15v-30c0-8.289062-6.710938-15-15-15h-482c-8.289062 0-15 6.710938-15 15v30c0 8.289062 6.710938 15 15 15zm0 0"/><path d="m15 120h482c8.289062 0 15-6.710938 15-15v-30c0-8.289062-6.710938-15-15-15h-141.726562l-25.855469-51.710938c-2.550781-5.082031-7.734375-8.289062-13.417969-8.289062h-120c-5.683594 0-10.867188 3.207031-13.417969 8.289062l-25.855469 51.710938h-141.726562c-8.289062 0-15 6.710938-15 15v30c0 8.289062 6.710938 15 15 15zm0 0"/><path d="m482 330v-180h-452v180zm-136-105h60c8.289062 0 15 6.710938 15 15s-6.710938 15-15 15h-60c-8.289062 0-15-6.710938-15-15s6.710938-15 15-15zm-132.480469 6.679688 30-45c4.585938-6.882813 13.859375-8.757813 20.800781-4.160157 6.898438 4.601563 8.761719 13.902344 4.160157 20.800781l-14.457031 21.679688h31.976562c5.535156 0 10.621094 3.046875 13.226562 7.925781 2.609376 4.878907 2.316407 10.796875-.746093 15.394531l-30 45c-4.519531 6.792969-13.785157 8.808594-20.800781 4.160157-6.898438-4.597657-8.757813-13.902344-4.160157-20.800781l14.457031-21.679688h-31.976562c-5.535156 0-10.621094-3.046875-13.226562-7.925781-2.609376-4.878907-2.316407-10.796875.746093-15.394531zm-107.519531-6.679688h15v-15c0-8.289062 6.710938-15 15-15s15 6.710938 15 15v15h15c8.289062 0 15 6.710938 15 15s-6.710938 15-15 15h-15v15c0 8.289062-6.710938 15-15 15s-15-6.710938-15-15v-15h-15c-8.289062 0-15-6.710938-15-15s6.710938-15 15-15zm0 0"/><path d="m121 15c0-8.289062-6.710938-15-15-15h-61c-8.289062 0-15 6.710938-15 15v15h91zm0 0"/><path d="m482 15c0-8.289062-6.710938-15-15-15h-61c-8.289062 0-15 6.710938-15 15v15h91zm0 0"/></svg>