<svg height="512pt" viewBox="0 0 512 512" width="512pt" xmlns="http://www.w3.org/2000/svg"><path d="m236.492188 416.113281c109.511718 24.332031 205.011718-71.34375 180.617187-180.617187-12.710937-56.867188-59.984375-102.222656-117.65625-112.839844-140.46875-25.777344-172.480469 109.425781-175.027344 112.425781.105469 8.898438-7.441406 27.132813-.773437 63.386719 10.617187 57.65625 55.972656 104.929688 112.839844 117.644531zm-48.90625-80.640625c-7.175782 4.140625-16.347657 1.683594-20.488282-5.488281s-1.683594-16.34375 5.492188-20.488281c7.171875-4.140625 16.34375-1.679688 20.484375 5.492187s1.683593 16.34375-5.488281 20.484375zm83.410156 54.496094c-8.28125 0-14.996094-6.714844-14.996094-14.996094s6.714844-14.996094 14.996094-14.996094c8.285156 0 14.996094 6.714844 14.996094 14.996094s-6.714844 14.996094-14.996094 14.996094zm59.988281-16.070312c-7.171875 4.140624-16.34375 1.679687-20.484375-5.492188-4.144531-7.171875-1.6875-16.34375 5.488281-20.484375 7.171875-4.144531 16.34375-1.683594 20.484375 5.488281s1.683594 16.34375-5.488281 20.488282zm59.984375-103.902344c0 8.285156-6.714844 15-14.996094 15s-14.996094-6.714844-14.996094-15c0-8.28125 6.714844-14.996094 14.996094-14.996094s14.996094 6.714844 14.996094 14.996094zm-36.558594-65.472656c7.175782-4.144532 16.34375-1.683594 20.488282 5.488281 4.140624 7.171875 1.683593 16.34375-5.492188 20.484375-7.171875 4.140625-16.34375 1.683594-20.484375-5.488282-4.140625-7.171874-1.683594-16.34375 5.488281-20.484374zm-5.488281 110.464843c4.140625-7.171875 13.3125-9.632812 20.484375-5.492187 7.175781 4.144531 9.632812 13.316406 5.492188 20.488281-4.144532 7.171875-13.3125 9.628906-20.488282 5.488281-7.171875-4.140625-9.628906-13.3125-5.488281-20.484375zm-38.421875-143.402343c4.140625-7.171876 13.308594-9.628907 20.484375-5.488282 7.171875 4.140625 9.628906 13.3125 5.488281 20.484375-4.140625 7.175781-13.3125 9.632813-20.484375 5.492188-7.175781-4.140625-9.632812-13.3125-5.488281-20.488281zm-39.503906-21.558594c8.285156 0 14.996094 6.710937 14.996094 14.996094 0 8.28125-6.710938 14.996093-14.996094 14.996093-8.28125 0-14.996094-6.714843-14.996094-14.996093 0-8.285157 6.714844-14.996094 14.996094-14.996094zm0 59.984375c33.085937 0 59.988281 26.902343 59.988281 59.984375 0 33.085937-26.902344 59.988281-59.988281 59.988281-33.082032 0-59.984375-26.902344-59.984375-59.988281 0-33.082032 26.902343-59.984375 59.984375-59.984375zm-59.984375-43.914063c7.171875-4.140625 16.34375-1.683594 20.484375 5.488282 4.144531 7.175781 1.683594 16.347656-5.488282 20.488281-7.171874 4.140625-16.34375 1.683593-20.484374-5.488281-4.144532-7.175782-1.683594-16.347657 5.488281-20.488282zm-5.488281 187.3125c4.140624-7.171875 13.3125-9.628906 20.484374-5.488281 7.171876 4.140625 9.632813 13.3125 5.488282 20.484375-4.140625 7.171875-13.3125 9.632812-20.484375 5.492188-7.171875-4.144532-9.632813-13.316407-5.488281-20.488282zm-38.425782-143.398437c4.140625-7.171875 13.3125-9.632813 20.484375-5.488281 7.175781 4.140624 9.628907 13.3125 5.492188 20.484374-4.140625 7.171876-13.3125 9.628907-20.488281 5.488282-7.171876-4.140625-9.628907-13.3125-5.488282-20.484375zm-16.074218 59.984375c0-8.28125 6.714843-14.996094 15-14.996094 8.28125 0 14.996093 6.714844 14.996093 14.996094 0 8.285156-6.714843 15-14.996093 15-8.285157 0-15-6.714844-15-15zm0 0"/><path d="m270.996094 299.992188c16.535156 0 29.996094-13.460938 29.996094-29.996094 0-16.53125-13.460938-29.992188-29.996094-29.992188-16.53125 0-29.992188 13.460938-29.992188 29.992188 0 16.535156 13.457032 29.996094 29.992188 29.996094zm0 0"/><path d="m91.070312 268.300781c-3.511718.882813-7.066406 1.695313-10.796874 1.695313h-49.722657c0 15.371094.957031 30.839844 3.851563 46.265625 20.042968 107.109375 115.566406 195.738281 237.078125 195.738281 63.472656 0 123.355469-26.5 169.179687-72.339844 57.101563-57.085937 82.105469-135.992187 66.84375-216.496094-18.027344-95.089843-95.078125-170.953124-190.242187-188.777343-15.4375-2.890625-30.898438-3.835938-46.265625-3.835938v48.652344c0 3.75-.808594 7.328125-1.703125 10.859375 11.816406-.109375 23.707031.910156 35.59375 3.097656 69.34375 12.769532 126.195312 67.351563 141.484375 135.800782 25.730468 115.09375-60.742188 220.902343-175.726563 220.9375-99.359375 0-180.515625-80.277344-179.574219-181.597657zm0 0"/><path d="m29.6875 135.777344c-14.507812 27.160156-23.53125 56.941406-27.238281 87.71875-1.0625 8.804687 6.214843 16.507812 15.085937 16.507812h62.738282c6.34375 0 12.023437-4.027344 14.132812-10.019531l7.015625-19.871094c18.046875-51.128906 58.207031-91.386719 109.292969-109.558593l20.347656-7.234376c5.945312-2.125 9.941406-7.792968 9.941406-14.121093v-61.664063c0-8.871094-7.703125-16.148437-16.507812-15.089844-30.777344 3.710938-60.558594 12.734376-87.71875 27.242188l-16.535156-16.535156c-17.535157-17.535156-45.964844-17.535156-63.5 0l-43.589844 42.585937c-17.535156 17.539063-17.535156 45.96875 0 63.503907zm0 0"/></svg>