<svg height="512pt" viewBox="0 -61 512 512" width="512pt" xmlns="http://www.w3.org/2000/svg"><path d="m497 150h-30c-8.289062 0-15 6.710938-15 15v15h-30v150h30v15c0 8.289062 6.710938 15 15 15h30c8.289062 0 15-6.710938 15-15v-180c0-8.289062-6.710938-15-15-15zm0 0"/><path d="m317 30c8.289062 0 15-6.710938 15-15s-6.710938-15-15-15h-182c-8.289062 0-15 6.710938-15 15s6.710938 15 15 15h46v30h-46c-8.289062 0-15 6.710938-15 15 0 5.035156 0 264.507812 0 254.988281h8.789062l56.605469 55.617188c2.8125 2.8125 6.621094 4.394531 10.605469 4.394531h136c0-15.109375 0-305.238281 0-315 0-8.289062-6.710938-15-15-15h-46v-30zm-48.519531 188.320312-30 45c-4.519531 6.792969-13.785157 8.808594-20.800781 4.160157-6.898438-4.601563-8.761719-13.902344-4.160157-20.800781l14.457031-21.679688h-31.976562c-5.535156 0-10.621094-3.046875-13.226562-7.925781-2.609376-4.878907-2.316407-10.796875.746093-15.394531l30-45c4.554688-6.898438 13.855469-8.761719 20.800781-4.160157 6.898438 4.597657 8.757813 13.902344 4.160157 20.800781l-14.457031 21.679688h31.976562c5.535156 0 10.621094 3.046875 13.226562 7.925781 2.609376 4.878907 2.316407 10.796875-.746093 15.394531zm0 0"/><path d="m15 330c8.289062 0 15-6.710938 15-15v-45h30v45c0 8.289062 6.710938 15 15 15h15v-210h-15c-8.289062 0-15 6.710938-15 15v45h-30v-45c0-8.289062-6.710938-15-15-15s-15 6.710938-15 15v180c0 8.289062 6.710938 15 15 15zm0 0"/><path d="m392 375v-240c0-8.289062-6.710938-15-15-15h-15v270h15c8.289062 0 15-6.710938 15-15zm0 0"/></svg>