<svg height="512pt" viewBox="0 0 512 512" width="512pt" xmlns="http://www.w3.org/2000/svg"><path d="m347 61h-46v-15c0-8.289062-6.710938-15-15-15h-60c-8.289062 0-15 6.710938-15 15v15h-46c-8.289062 0-15 6.710938-15 15v60c0 8.289062 6.710938 15 15 15h46v15c0 8.289062 6.710938 15 15 15h15v32.761719c-17.421875 6.214843-30 22.707031-30 42.238281s12.578125 36.023438 30 42.238281v34.550781c-17.65625 3.707032-33.664062 13.585938-44.691406 28.210938h-31.308594c-8.289062 0-15 6.710938-15 15v60c0 8.289062 6.710938 15 15 15h31.308594c14.089844 18.691406 36.238281 30 59.691406 30s45.601562-11.308594 59.691406-30h31.308594c8.289062 0 15-6.710938 15-15v-60c0-8.289062-6.710938-15-15-15h-31.308594c-11.027344-14.625-27.035156-24.503906-44.691406-28.210938v-34.550781c17.421875-6.214843 30-22.707031 30-42.238281s-12.578125-36.023438-30-42.238281v-32.761719h15c8.289062 0 15-6.710938 15-15v-15h46c8.289062 0 15-6.710938 15-15v-60c0-8.289062-6.710938-15-15-15zm0 0"/><path d="m0 432.703125v18.296875c0 2.121094.410156 4.132812.625 6.195312l119.375-72.753906v-23.441406c0-.460938-.125-.886719-.136719-1.347656zm0 0"/><path d="m60 512c33.089844 0 60-27.910156 60-61v-31.4375l-108.6875 66.242188c10.898438 15.195312 28.601562 26.195312 48.6875 26.195312zm0 0"/><path d="m60 301c-33.089844 0-60 26.910156-60 60v36.582031l111.058594-67.683593c-10.550782-17.253907-29.394532-28.898438-51.058594-28.898438zm0 0"/><path d="m392 361v23.441406l119.375 72.753906c.214844-2.0625.625-4.074218.625-6.195312v-18.300781l-119.863281-73.054688c-.011719.464844-.136719.890625-.136719 1.355469zm0 0"/><path d="m452 301c-21.664062 0-40.507812 11.640625-51.054688 28.890625l111.054688 67.6875v-36.578125c0-33.089844-26.910156-60-60-60zm0 0"/><path d="m392 451c0 33.089844 26.910156 61 60 61 20.085938 0 37.789062-11 48.6875-26.195312l-108.6875-66.242188zm0 0"/><path d="m0 132.703125v18.296875c0 2.121094.410156 4.132812.625 6.195312l119.375-72.753906v-23.441406c0-.460938-.125-.886719-.136719-1.347656zm0 0"/><path d="m60 211c33.089844 0 60-26.910156 60-60v-31.4375l-108.6875 66.242188c10.898438 15.195312 28.601562 25.195312 48.6875 25.195312zm0 0"/><path d="m60 0c-33.089844 0-60 27.910156-60 61v36.582031l111.058594-67.683593c-10.550782-17.253907-29.394532-29.898438-51.058594-29.898438zm0 0"/><path d="m392 61v23.441406l119.375 72.753906c.214844-2.0625.625-4.074218.625-6.195312v-18.300781l-119.863281-73.050781c-.011719.460937-.136719.886718-.136719 1.351562zm0 0"/><path d="m452 0c-21.664062 0-40.507812 12.640625-51.054688 29.890625l111.054688 67.6875v-36.578125c0-33.089844-26.910156-61-60-61zm0 0"/><path d="m452 211c20.085938 0 37.789062-10 48.6875-25.195312l-108.6875-66.242188v31.4375c0 33.089844 26.910156 60 60 60zm0 0"/></svg>