<svg height="512.0005pt" viewBox="0 0 512.0005 512.0005" width="512.0005pt" xmlns="http://www.w3.org/2000/svg"><path d="m4.398438 465.175781 42.425781 42.425781c5.863281 5.863282 15.351562 5.863282 21.210937 0l50.730469-50.726562c25.617187-25.617188 28.785156-65.289062 9.539063-94.394531l30.347656-30.347657c29.105468 19.246094 68.777344 16.078126 94.394531-9.539062l10.605469-10.605469-63.640625-63.640625-1.066407 1.066406c-29.105468-19.242187-68.777343-16.074218-94.390624 9.542969l-49.429688 49.425781c-25.613281 25.613282-28.78125 65.285157-9.539062 94.390626l-41.1875 41.191406c-5.863282 5.863281-5.863282 15.347656 0 21.210937zm0 0"/><path d="m189.40625 174.101562c-5.863281 5.863282-5.863281 15.351563 0 21.214844l127.277344 127.277344c5.863281 5.863281 15.351562 5.863281 21.214844 0l53.03125-53.03125-148.492188-148.496094zm0 0"/><path d="m263.648438 99.855469 21.210937-21.210938 148.492187 148.492188-21.210937 21.210937zm0 0"/><path d="m359.113281 4.398438-53.035156 53.03125 148.492187 148.492187 53.03125-53.035156c5.863282-5.863281 5.863282-15.347657 0-21.210938l-127.277343-127.277343c-5.863281-5.863282-15.351563-5.863282-21.210938 0zm0 0"/><path d="m507.601562 46.824219-42.425781-42.425781c-5.863281-5.863282-15.351562-5.863282-21.210937 0l-10.609375 10.605468 63.640625 63.636719 10.605468-10.605469c5.863282-5.863281 5.863282-15.347656 0-21.210937zm0 0"/></svg>