<svg height="512pt" viewBox="0 0 512 512" width="512pt" xmlns="http://www.w3.org/2000/svg"><path d="m96.902344 393.886719c-5.859375 5.859375-5.859375 15.351562 0 21.210937 26.648437 26.648438 59.632812 45.871094 95.53125 56.4375 1.488281 2.605469 2.761718 5.296875 4.445312 7.824219 13.214844 19.820313 35.304688 32.640625 59.121094 32.640625s45.90625-12.820312 59.121094-32.640625c28.222656-42.355469 29.285156-96.359375 3.859375-139.878906-17.601563 13.316406-39.261719 21.519531-62.980469 21.519531s-45.378906-8.203125-62.980469-21.519531c-5.289062 9.058593-9.15625 18.632812-12.148437 28.402343-7.222656-4.863281-14.113282-10.210937-20.335938-16.433593-5.859375-5.832031-15.363281-5.84375-21.226562.015625-5.84375 5.875-5.84375 15.363281.015625 21.226562 10.691406 10.664063 22.9375 19.289063 35.96875 26.636719-.648438 11.816406.285156 23.628906 2.832031 35.242187-22.21875-9.714843-42.679688-23.363281-60.011719-40.683593-5.859375-5.859375-15.351562-5.859375-21.210937 0zm0 0"/><path d="m256 331c41.351562 0 75-33.648438 75-75s-33.648438-75-75-75-75 33.648438-75 75 33.648438 75 75 75zm0-90c8.285156 0 15 6.714844 15 15s-6.714844 15-15 15-15-6.714844-15-15 6.714844-15 15-15zm0 0"/><path d="m339.476562 193.019531c13.320313 17.597657 21.523438 39.261719 21.523438 62.980469s-8.203125 45.378906-21.523438 62.980469c9.046876 5.285156 18.574219 9.269531 28.308594 12.308593-4.835937 7.164063-10.160156 14-16.335937 20.175782-5.84375 5.875-5.84375 15.363281.015625 21.226562 5.875 5.84375 15.371094 5.835938 21.226562-.015625 10.601563-10.628906 19.179688-22.800781 26.503906-35.742187 2.273438.125 4.527344.46875 6.804688.46875 9.59375 0 19.132812-1.398438 28.554688-3.496094-9.714844 22.207031-23.355469 42.65625-40.667969 59.980469-5.859375 5.859375-5.859375 15.351562 0 21.210937 5.855469 5.859375 15.351562 5.859375 21.210937 0 26.65625-26.660156 45.882813-59.65625 56.449219-95.566406 2.597656-1.492188 6.292969-2.730469 8.8125-4.410156 19.820313-13.214844 31.640625-35.304688 31.640625-59.121094s-11.820312-45.90625-31.640625-59.121094c-42.355469-28.238281-97.359375-29.300781-140.882813-3.859375zm0 0"/><path d="m256 151c23.71875 0 45.378906 8.203125 62.980469 21.519531 5.289062-9.058593 9.15625-18.632812 12.148437-28.402343 7.222656 4.863281 14.113282 10.210937 20.335938 16.433593 5.875 5.84375 15.371094 5.839844 21.226562-.015625 5.84375-5.875 5.84375-15.363281-.015625-21.226562-10.691406-10.664063-22.9375-19.289063-35.96875-26.636719.648438-11.816406-.285156-23.628906-2.832031-35.242187 22.21875 9.710937 42.679688 23.363281 60.011719 40.683593 5.859375 5.859375 15.351562 5.859375 21.210937 0s5.859375-15.351562 0-21.210937c-26.648437-26.648438-59.632812-45.871094-95.53125-56.4375-1.488281-2.605469-2.757812-6.296875-4.445312-8.824219-13.214844-19.820313-35.304688-31.640625-59.121094-31.640625s-45.90625 11.820312-59.121094 31.640625c-28.222656 42.355469-29.285156 97.359375-3.859375 140.878906 17.601563-13.316406 39.261719-21.519531 62.980469-21.519531zm0 0"/><path d="m32.640625 315.121094c22.28125 14.855468 47.828125 22.28125 73.359375 22.28125 23.003906 0 45.894531-6.363282 66.523438-18.421875-13.320313-17.601563-21.523438-39.261719-21.523438-62.980469s8.203125-45.382812 21.523438-62.980469c-9.058594-5.296875-18.636719-9.164062-28.402344-12.15625 4.859375-7.21875 10.210937-14.109375 16.429687-20.328125 5.84375-5.875 5.84375-15.363281-.015625-21.226562-5.859375-5.828125-15.367187-5.84375-21.226562.015625-10.660156 10.6875-19.285156 22.929687-26.632813 35.957031-11.816406-.648438-23.625.285156-35.242187 2.835938 9.710937-22.21875 23.363281-42.675782 40.679687-60.003907 5.859375-5.859375 5.859375-15.351562 0-21.210937s-15.351562-5.859375-21.210937 0c-26.648438 26.648437-45.867188 59.632812-56.4375 95.527344-2.605469 1.492187-5.296875 2.761718-7.824219 4.449218-19.820313 13.214844-32.640625 35.304688-32.640625 59.121094s12.820312 45.90625 32.640625 59.121094zm0 0"/></svg>