<svg height="512pt" viewBox="-61 0 512 512" width="512pt" xmlns="http://www.w3.org/2000/svg"><path d="m120 75c0-8.289062-6.710938-15-15-15h-90c-8.289062 0-15 6.710938-15 15v15h120zm0 0"/><path d="m390 436v-226h-390v226c0 41.351562 33.648438 76 75 76h240c41.351562 0 75-34.648438 75-76zm-195 16c-41.351562 0-75-34.648438-75-76 0-25.914062 10.546875-40.574219 36.050781-75.996094 7.367188-10.226562 16.171875-22.457031 26.613281-37.542968 5.625-8.085938 19.046876-8.085938 24.671876 0 10.441406 15.085937 19.246093 27.316406 26.613281 37.542968 25.503906 35.421875 36.050781 50.082032 36.050781 75.996094 0 41.351562-33.648438 76-75 76zm0 0"/><path d="m315 0h-120c-6.136719 0-11.644531 3.734375-13.929688 9.433594l-44.222656 110.566406h-121.847656c-8.289062 0-15 6.710938-15 15v45h390v-105c0-41.351562-33.648438-75-75-75zm15 135c0 8.289062-6.710938 15-15 15h-103.375c-4.980469 0-9.621094-2.476562-12.421875-6.59375-2.78125-4.113281-3.351563-9.359375-1.507813-13.972656l23.992188-60c2.289062-5.699219 7.792969-9.433594 13.933594-9.433594h79.378906c8.289062 0 15 6.710938 15 15zm0 0"/><path d="m195 297.132812c-5.390625 7.601563-10.253906 14.339844-14.605469 20.390626-24.59375 34.175781-30.394531 42.832031-30.394531 58.476562 0 24.8125 20.1875 45 45 45s45-20.1875 45-45c0-15.644531-5.800781-24.300781-30.394531-58.476562-4.351563-6.050782-9.214844-12.789063-14.605469-20.390626zm0 0"/><path d="m233.773438 120h66.226562v-30h-54.230469zm0 0"/></svg>