<svg height="512pt" viewBox="0 0 512 512" width="512pt" xmlns="http://www.w3.org/2000/svg"><path d="m256 241c-8.277344 0-15 6.722656-15 15s6.722656 15 15 15 15-6.722656 15-15-6.722656-15-15-15zm0 0"/><path d="m256 0c-140.609375 0-256 115.390625-256 256s115.390625 256 256 256 256-115.390625 256-256-115.390625-256-256-256zm0 91c70.972656 0 133.636719 45.820312 156.152344 111.53125l-63.03125-6.296875c-6.195313-.617187-11.367188-5.097656-12.890625-11.164063-5.011719-20.050781-22.96875-34.070312-43.652344-34.070312h-73.15625c-20.683594 0-38.640625 14.019531-43.664063 34.085938-1.511718 6.050781-6.683593 10.53125-12.878906 11.148437h-.015625l-63.015625 6.296875c22.515625-65.710938 85.179688-111.53125 156.152344-111.53125zm-156.167969 218.46875 56.734375 5.667969c21.226563 2.125 38.171875 19.070312 40.296875 40.296875l5.667969 56.734375c-48.292969-16.449219-86.25-54.40625-102.699219-102.699219zm156.167969-8.46875c-24.8125 0-45-20.1875-45-45s20.1875-45 45-45 45 20.1875 45 45-20.1875 45-45 45zm53.46875 111.167969 5.667969-56.734375c2.125-21.226563 19.070312-38.171875 40.296875-40.296875l56.734375-5.667969c-16.449219 48.292969-54.40625 86.25-102.699219 102.699219zm0 0"/></svg>