<svg height="512pt" viewBox="0 0 512 512" width="512pt" xmlns="http://www.w3.org/2000/svg"><path d="m150 181h60v90h-60zm0 0"/><path d="m90 61h30v150h-30zm0 0"/><path d="m0 181h60v90h-60zm0 0"/><path d="m90 241h30v90h-30zm0 0"/><path d="m0 301h60v90h-60zm0 0"/><path d="m45 512h15v-91h-60v46c0 24.8125 20.1875 45 45 45zm0 0"/><path d="m210 467v-46h-60v91h15c24.8125 0 45-20.1875 45-45zm0 0"/><path d="m60 61h-15c-24.8125 0-45 20.1875-45 45v45h60zm0 0"/><path d="m210 106c0-24.8125-20.1875-45-45-45h-15v90h60zm0 0"/><path d="m150 301h60v90h-60zm0 0"/><path d="m90 361h30v151h-30zm0 0"/><path d="m302 346v-15h40.53125c-6.554688-13.691406-10.53125-28.835938-10.53125-45s3.976562-31.308594 10.53125-45h-40.53125v-15c0-6.460938-4.132812-12.1875-10.253906-14.222656l-51.746094-16.582032v181.609376l51.746094-16.582032c6.121094-2.035156 10.253906-7.761718 10.253906-14.222656zm0 0"/><path d="m497 0h-120c-8.289062 0-15 6.710938-15 15v91c0 8.289062 6.710938 15 15 15h15v30h-15c-8.289062 0-15 6.710938-15 15s6.710938 15 15 15h120c8.289062 0 15-6.710938 15-15s-6.710938-15-15-15h-15v-30h15c8.289062 0 15-6.710938 15-15v-91c0-8.289062-6.710938-15-15-15zm0 0"/><path d="m437 211c-41.351562 0-75 33.648438-75 75s33.648438 75 75 75 75-33.648438 75-75-33.648438-75-75-75zm0 90c-8.285156 0-15-6.714844-15-15s6.714844-15 15-15 15 6.714844 15 15-6.714844 15-15 15zm0 0"/></svg>