<svg height="512pt" viewBox="0 0 512 512" width="512pt" xmlns="http://www.w3.org/2000/svg"><path d="m241 213.761719v-31.242188c-9.554688 1.945313-18.421875 5.761719-26.285156 10.972657l22.007812 22.015624c1.390625-.664062 2.8125-1.222656 4.277344-1.746093zm0 0"/><path d="m213.761719 271h-31.242188c1.945313 9.554688 5.761719 18.421875 10.972657 26.285156l22.015624-22.007812c-.664062-1.390625-1.222656-2.8125-1.746093-4.277344zm0 0"/><path d="m297.300781 193.5c-7.867187-5.21875-16.742187-9.035156-26.300781-10.980469v31.242188c1.464844.523437 2.890625 1.082031 4.28125 1.75zm0 0"/><path d="m215.511719 236.71875-22.011719-22.019531c-5.21875 7.867187-9.035156 16.742187-10.980469 26.300781h31.242188c.523437-1.464844 1.082031-2.890625 1.75-4.28125zm0 0"/><path d="m214.699219 318.5c7.867187 5.21875 16.742187 9.035156 26.300781 10.980469v-31.242188c-1.464844-.523437-2.890625-1.082031-4.28125-1.75zm0 0"/><path d="m256 241c-8.242188 0-15 6.722656-15 15 0 8.242188 6.722656 15 15 15 8.242188 0 15-6.722656 15-15 0-8.242188-6.722656-15-15-15zm0 0"/><path d="m296.488281 275.28125 22.011719 22.019531c5.21875-7.867187 9.035156-16.742187 10.980469-26.300781h-31.242188c-.523437 1.464844-1.082031 2.890625-1.75 4.28125zm0 0"/><path d="m271 298.238281v31.242188c9.554688-1.945313 18.421875-5.761719 26.285156-10.972657l-22.007812-22.015624c-1.390625.664062-2.8125 1.222656-4.277344 1.746093zm0 0"/><path d="m256 121c-74.441406 0-135 60.558594-135 135s60.558594 135 135 135 135-60.558594 135-135-60.558594-135-135-135zm0 240c-57.695312 0-105-46.9375-105-105 0-57.695312 46.9375-105 105-105 57.695312 0 105 46.9375 105 105 0 57.695312-46.9375 105-105 105zm0 0"/><path d="m466 241h46c-2.078125-35.480469-13.117188-68.992188-28.296875-99.140625l-38.34375 22.132813c-7.097656 4.101562-16.300781 1.746093-20.492187-5.492188-4.144532-7.175781-1.683594-16.347656 5.492187-20.492188l38.429687-22.183593c-19.058593-28.832031-43.78125-53.554688-72.609374-72.609375l-22.1875 38.425781c-4.183594 7.222656-13.382813 9.597656-20.492188 5.492187-7.179688-4.144531-9.640625-13.316406-5.492188-20.492187l22.136719-38.34375c-30.152343-15.179687-63.664062-26.21875-99.144531-28.296875v46c0 8.289062-6.710938 15-15 15s-15-6.710938-15-15v-46c-35.484375 2.078125-68.992188 13.121094-99.144531 28.296875l22.136719 38.34375c4.148437 7.175781 1.6875 16.347656-5.492188 20.492187-7.152344 4.128907-16.34375 1.6875-20.492188-5.492187l-22.1875-38.425781c-28.832031 19.054687-53.554687 43.777344-72.609374 72.605468l38.429687 22.1875c7.175781 4.144532 9.636719 13.3125 5.492187 20.492188-4.1875 7.226562-13.386718 9.597656-20.492187 5.492188l-38.34375-22.136719c-15.175781 30.152343-26.21875 63.664062-28.296875 99.144531h46c8.289062 0 15 6.710938 15 15s-6.710938 15-15 15h-46c2.078125 35.484375 13.121094 68.992188 28.296875 99.144531l38.34375-22.136719c7.144531-4.132812 16.332031-1.6875 20.492187 5.492188 4.144532 7.179688 1.683594 16.347656-5.492187 20.492188l-38.425781 22.1875c19.054687 28.828124 43.777344 53.554687 72.605468 72.605468l22.1875-38.425781c4.128907-7.207031 13.300782-9.636719 20.492188-5.492187 7.179688 4.144531 9.640625 13.316406 5.492188 20.492187l-22.136719 38.34375c30.152343 15.175781 63.660156 26.21875 99.144531 28.296875v-46c0-8.289062 6.710938-15 15-15s15 6.710938 15 15v46c35.480469-2.078125 68.992188-13.121094 99.144531-28.296875l-22.136719-38.34375c-4.148437-7.175781-1.6875-16.347656 5.492188-20.492187 7.132812-4.144532 16.347656-1.714844 20.492188 5.492187l22.1875 38.429687c28.828124-19.054687 53.550781-43.777343 72.605468-72.609374l-38.425781-22.1875c-7.175781-4.144532-9.636719-13.3125-5.492187-20.492188 4.144531-7.179688 13.328124-9.625 20.492187-5.492188l38.34375 22.136719c15.175781-30.152343 26.21875-63.660156 28.296875-99.144531h-46c-8.289062 0-15-6.710938-15-15s6.710938-15 15-15zm-210 180c-90.980469 0-165-74.019531-165-165s74.019531-165 165-165 165 74.019531 165 165-74.019531 165-165 165zm0 0"/><path d="m296.492188 236.722656c.664062 1.390625 1.222656 2.8125 1.746093 4.277344h31.242188c-1.945313-9.554688-5.761719-18.421875-10.972657-26.285156zm0 0"/></svg>