<?xml version="1.0" encoding="iso-8859-1"?>
<!-- Generator: Adobe Illustrator 19.0.0, SVG Export Plug-In . SVG Version: 6.00 Build 0)  -->
<svg version="1.1" id="Layer_1" xmlns="http://www.w3.org/2000/svg" xmlns:xlink="http://www.w3.org/1999/xlink" x="0px" y="0px"
	 viewBox="0 0 512 512" style="enable-background:new 0 0 512 512;" xml:space="preserve">
<g>
	<g>
		<path d="M193.454,272.696H159.15c2.523,14.68,8.31,28.258,16.59,39.954l24.248-24.248
			C197.158,283.53,194.941,278.262,193.454,272.696z"/>
	</g>
</g>
<g>
	<g>
		<path d="M175.74,199.351c-8.28,11.696-14.067,25.274-16.59,39.954h34.304c1.487-5.566,3.704-10.833,6.534-15.706L175.74,199.351z"
			/>
	</g>
</g>
<g>
	<g>
		<path d="M272.696,159.15v34.304c5.566,1.487,10.833,3.704,15.706,6.534l24.249-24.249
			C300.954,167.46,287.376,161.673,272.696,159.15z"/>
	</g>
</g>
<g>
	<g>
		<path d="M199.351,175.74l24.248,24.248c4.872-2.829,10.14-5.047,15.706-6.534V159.15
			C224.624,161.673,211.046,167.46,199.351,175.74z"/>
	</g>
</g>
<g>
	<g>
		<path d="M223.598,312.013l-24.249,24.249c11.697,8.28,25.274,14.067,39.954,16.59v-34.305h0.001
			C233.738,317.059,228.471,314.842,223.598,312.013z"/>
	</g>
</g>
<g>
	<g>
		<path d="M288.402,312.013c-4.872,2.829-10.14,5.047-15.706,6.534v34.304c14.68-2.523,28.258-8.31,39.954-16.59L288.402,312.013z"
			/>
	</g>
</g>
<g>
	<g>
		<path d="M437.02,74.98C388.667,26.628,324.381,0,256,0S123.333,26.628,74.98,74.98C26.628,123.333,0,187.62,0,256
			s26.628,132.667,74.98,181.02C123.333,485.372,187.619,512,256,512s132.667-26.628,181.02-74.98
			C485.372,388.667,512,324.38,512,256S485.372,123.333,437.02,74.98z M256,387.666c-72.602,0-131.666-59.066-131.666-131.666
			S183.398,124.334,256,124.334c72.602,0,131.666,59.065,131.666,131.666C387.666,328.602,328.602,387.666,256,387.666z"/>
	</g>
</g>
<g>
	<g>
		<path d="M336.26,199.351l-24.248,24.248c2.829,4.872,5.047,10.14,6.534,15.706h34.304
			C350.327,224.624,344.54,211.046,336.26,199.351z"/>
	</g>
</g>
<g>
	<g>
		<path d="M318.546,272.696c-1.487,5.566-3.704,10.833-6.534,15.706l24.248,24.248c8.28-11.696,14.067-25.274,16.59-39.954H318.546z
			"/>
	</g>
</g>
<g>
	<g>
		<path d="M278.138,233.862c-5.999-5.999-13.655-9.17-22.138-9.17c-8.484,0-16.139,3.171-22.138,9.171
			c-5.999,5.999-9.17,13.655-9.17,22.138c0,8.484,3.171,16.139,9.17,22.138c5.999,5.998,13.655,9.169,22.138,9.169
			c8.484,0,16.139-3.171,22.138-9.17c5.999-5.999,9.17-13.655,9.17-22.138C287.309,247.516,284.138,239.861,278.138,233.862z"/>
	</g>
</g>
<g>
</g>
<g>
</g>
<g>
</g>
<g>
</g>
<g>
</g>
<g>
</g>
<g>
</g>
<g>
</g>
<g>
</g>
<g>
</g>
<g>
</g>
<g>
</g>
<g>
</g>
<g>
</g>
<g>
</g>
</svg>
