<?xml version="1.0" encoding="UTF-8" standalone="no"?>
<svg xmlns:dc="http://purl.org/dc/elements/1.1/"
  xmlns:cc="http://creativecommons.org/ns#"
  xmlns:rdf="http://www.w3.org/1999/02/22-rdf-syntax-ns#"
  xmlns:svg="http://www.w3.org/2000/svg"
  xmlns="http://www.w3.org/2000/svg" height="77.686081" width="249.99998" viewBox="0 10 249.99998 77.686081" version="1.1" id="svg8" style="enable-background:new">
  <defs id="defs2">
    <clipPath clipPathUnits="userSpaceOnUse" id="clipPath1200">
      <rect style="opacity:1;fill:#ffffff;fill-opacity:1;stroke:none;stroke-width:1.20037687;stroke-linecap:round;stroke-linejoin:round;stroke-miterlimit:4;stroke-dasharray:none;stroke-dashoffset:0;stroke-opacity:1;paint-order:normal" id="rect1202" width="145.72232" height="56.114834" x="53.755306" y="85.108307" />
    </clipPath>
    <clipPath clipPathUnits="userSpaceOnUse" id="clipPath1204">
      <rect style="opacity:1;fill:#ffffff;fill-opacity:1;stroke:none;stroke-width:1.20848036;stroke-linecap:round;stroke-linejoin:round;stroke-miterlimit:4;stroke-dasharray:none;stroke-dashoffset:0;stroke-opacity:1;paint-order:normal" id="rect1206" width="148.4826" height="55.817719" x="53.237114" y="83.821976" />
    </clipPath>
    <clipPath clipPathUnits="userSpaceOnUse" id="clipPath1208">
      <rect style="opacity:1;fill:#ffffff;fill-opacity:1;stroke:none;stroke-width:1.20037687;stroke-linecap:round;stroke-linejoin:round;stroke-miterlimit:4;stroke-dasharray:none;stroke-dashoffset:0;stroke-opacity:1;paint-order:normal" id="rect1210" width="145.72232" height="56.114834" x="53.755306" y="83.752876" />
    </clipPath>
    <clipPath clipPathUnits="userSpaceOnUse" id="clipPath1212">
      <rect style="opacity:1;fill:#ffffff;fill-opacity:1;stroke:none;stroke-width:1.20037687;stroke-linecap:round;stroke-linejoin:round;stroke-miterlimit:4;stroke-dasharray:none;stroke-dashoffset:0;stroke-opacity:1;paint-order:normal" id="rect1214" width="145.72232" height="56.114834" x="53.755306" y="83.752876" />
    </clipPath>
    <clipPath clipPathUnits="userSpaceOnUse" id="clipPath1216">
      <rect style="opacity:1;fill:#ffffff;fill-opacity:1;stroke:none;stroke-width:1.20037687;stroke-linecap:round;stroke-linejoin:round;stroke-miterlimit:4;stroke-dasharray:none;stroke-dashoffset:0;stroke-opacity:1;paint-order:normal" id="rect1218" width="145.72232" height="56.114834" x="53.755306" y="83.752876" />
    </clipPath>
    <clipPath clipPathUnits="userSpaceOnUse" id="clipPath1220">
      <rect style="opacity:1;fill:#ffffff;fill-opacity:1;stroke:none;stroke-width:1.20037687;stroke-linecap:round;stroke-linejoin:round;stroke-miterlimit:4;stroke-dasharray:none;stroke-dashoffset:0;stroke-opacity:1;paint-order:normal" id="rect1222" width="145.72232" height="56.114834" x="53.755306" y="85.108307" />
    </clipPath>
    <filter style="color-interpolation-filters:sRGB" id="filter940">
      <feBlend mode="overlay" in2="BackgroundImage" id="feBlend942" />
    </filter>
    <filter style="color-interpolation-filters:sRGB" id="filter944">
      <feBlend mode="overlay" in2="BackgroundImage" id="feBlend946" />
    </filter>
    <filter style="color-interpolation-filters:sRGB" id="filter948">
      <feBlend mode="overlay" in2="BackgroundImage" id="feBlend950" />
    </filter>
    <filter style="color-interpolation-filters:sRGB" id="filter952">
      <feBlend mode="overlay" in2="BackgroundImage" id="feBlend954" />
    </filter>
    <filter style="color-interpolation-filters:sRGB" id="filter956">
      <feBlend mode="overlay" in2="BackgroundImage" id="feBlend958" />
    </filter>
    <filter style="color-interpolation-filters:sRGB" id="filter960">
      <feBlend mode="overlay" in2="BackgroundImage" id="feBlend962" />
    </filter>
  </defs>
  <metadata id="metadata5">
    <rdf:RDF>
      <cc:Work rdf:about="">
        <dc:format>image/svg+xml</dc:format>
        <dc:type rdf:resource="http://purl.org/dc/dcmitype/StillImage" />
        <dc:title></dc:title>
      </cc:Work>
    </rdf:RDF>
  </metadata>
  <g id="g877">
    <path id="path859" d="M 55.313182,99.950496 C 74.539161,99.453756 94.362347,87.64618 114.47618,88.02793 c 27.23078,0.516826 31.91231,12.71867 39.15915,12.96192 19.90126,0.66801 42.32128,-0.81779 42.72427,16.73207 -6.65,-17.16494 -35.47581,-11.87677 -55.56374,-14.39709 l 7.64846,-0.67485 C 116.27528,76.73541 72.925553,103.07004 55.313182,99.950496 Z" style="fill:none;stroke:#fff100;stroke-width:1.3985523;stroke-linecap:butt;stroke-linejoin:miter;stroke-miterlimit:4;stroke-dasharray:none;stroke-opacity:1;filter:url(#filter940)" transform="matrix(1.7155916,0,0,1.705091,-92.222152,-145.11741)" clip-path="url(#clipPath1220)" />
    <path id="path861" d="m 61.386951,103.09989 c 17.762281,-2.74124 31.272275,1.25028 41.841509,9.89797 C 95.90613,99.415547 70.587594,98.211525 61.386951,103.09989 Z" style="fill:#d50000;fill-opacity:1;stroke:#d50000;stroke-width:0.62987232px;stroke-linecap:butt;stroke-linejoin:miter;stroke-opacity:1;filter:url(#filter944)" transform="matrix(1.7155916,0,0,1.705091,-92.222152,-142.80627)" clip-path="url(#clipPath1216)" />
    <path id="path863" d="M 57.112814,121.99604 C 62.493658,107.60628 81.04342,101.75305 84.107349,121.54612 84.290895,96.187807 57.891598,106.5959 57.112814,121.99604 Z" style="fill:none;stroke:#fff100;stroke-width:1.3985523;stroke-linecap:butt;stroke-linejoin:miter;stroke-miterlimit:4;stroke-dasharray:none;stroke-opacity:1;filter:url(#filter948)" transform="matrix(1.7155916,0,0,1.705091,-92.222152,-142.80627)" clip-path="url(#clipPath1212)" />
    <path id="path865" d="m 159.69134,123.23505 c 5.38084,-14.38975 23.93061,-20.24298 26.99454,-0.44991 0.18355,-25.358315 -26.21574,-14.95022 -26.99454,0.44991 z" style="fill:none;stroke:#fff100;stroke-width:1.3985523;stroke-linecap:butt;stroke-linejoin:miter;stroke-miterlimit:4;stroke-dasharray:none;stroke-opacity:1;filter:url(#filter952)" transform="matrix(1.7155916,0,0,1.705091,-92.222152,-142.80627)" clip-path="url(#clipPath1208)" />
    <path style="fill:#d50000;fill-opacity:1;stroke:#d50000;stroke-width:0.62987232px;stroke-linecap:butt;stroke-linejoin:miter;stroke-opacity:1;filter:url(#filter956)" d="M 85.402716,98.955492 C 101.68842,92.065831 127.6231,93.510632 139.82511,99.642752 126.34028,87.761349 91.289893,91.951773 85.402716,98.955492 Z" id="path867" transform="matrix(1.6836987,0,0,1.7141671,-89.635265,-143.68487)" clip-path="url(#clipPath1204)" />
    <path id="path869" d="m 132.66614,107.41191 c 0.67307,-0.98325 28.97079,0.1933 28.95015,1.11346 -0.0886,3.94573 -6.75582,11.82123 -9.544,12.88441 -2.05619,0.78406 -29.32284,0.78556 -29.58644,-0.31812 -0.52691,-2.20617 17.21904,-0.46705 28.47297,-1.59068 1.53003,-0.15284 4.21022,-2.19769 3.18132,-3.34039 -1.10068,-1.22243 -23.97918,0.27575 -24.01907,-0.95439 -0.0581,-1.79308 20.43728,0.0238 25.92787,-1.59068 1.34305,-0.39464 3.08457,-2.04872 2.54508,-3.34039 -0.87993,-2.10673 -27.21546,-0.98234 -25.92788,-2.86322 z" style="fill:#d50000;stroke:#d50000;stroke-width:0.62987232px;stroke-linecap:butt;stroke-linejoin:miter;stroke-opacity:1;filter:url(#filter960)" transform="matrix(1.7155916,0,0,1.705091,-92.222152,-145.11741)" clip-path="url(#clipPath1200)" />
    <g aria-label="NASCAR" transform="scale(1.3047015,0.76645885)" style="font-style:normal;font-variant:normal;font-weight:normal;font-stretch:normal;font-size:37.90971756px;line-height:1.25;font-family:Audiowide;-inkscape-font-specification:'Audiowide, Normal';font-variant-ligatures:normal;font-variant-caps:normal;font-variant-numeric:normal;font-feature-settings:normal;text-align:start;letter-spacing:0px;word-spacing:0px;writing-mode:lr-tb;text-anchor:start;fill:#fff100;fill-opacity:1;stroke:none;stroke-width:0.94774562" id="text970">
      <path d="m 32.604826,118.50277 q 0,0.5183 -0.203617,0.96255 -0.185106,0.44426 -0.518297,0.77745 -0.31468,0.31468 -0.758935,0.49979 -0.444254,0.1851 -0.94404,0.1851 -0.444255,0 -0.90702,-0.16659 -0.444255,-0.1666 -0.795956,-0.53681 L 10.891887,101.86174 v 18.69571 H 6.0791298 V 96.06792 q 0,-0.740424 0.4072333,-1.332764 0.4257439,-0.61085 1.073615,-0.907019 0.6848924,-0.277659 1.4068059,-0.129574 0.7219136,0.129574 1.240211,0.666381 L 27.792069,112.70895 V 94.013243 h 4.812757 z" style="fill:#d50000;fill-opacity:1" id="path845" />
      <path d="m 64.257961,120.55745 h -4.812757 v -6.51573 H 42.526511 v 6.51573 h -4.812757 v -13.2721 q 0,-2.90617 0.999573,-5.34957 0.999573,-2.443398 2.776591,-4.201906 1.777018,-1.758507 4.201907,-2.739569 2.424889,-0.981062 5.294033,-0.981062 h 10.847214 q 0.499786,0 0.944041,0.185106 0.444254,0.185106 0.777445,0.518297 0.333191,0.333191 0.518297,0.777445 0.185106,0.444255 0.185106,0.944041 z M 42.526511,109.22896 H 59.445204 V 98.826 h -8.459346 q -0.222128,0 -0.944041,0.07404 -0.703403,0.05553 -1.647444,0.314681 -0.92553,0.259148 -1.962124,0.795957 -1.036594,0.53681 -1.906592,1.48085 -0.869999,0.94404 -1.443827,2.36935 -0.555319,1.40681 -0.555319,3.42447 z" style="fill:#d50000;fill-opacity:1" id="path847" />
      <path d="m 95.337265,112.74597 q 0,1.42532 -0.370212,2.57298 -0.351701,1.12915 -0.944041,1.99914 -0.592339,0.87 -1.388295,1.48085 -0.795956,0.61085 -1.647444,0.99957 -0.851488,0.38873 -1.739997,0.57383 -0.869998,0.18511 -1.647444,0.18511 H 69.033696 v -4.81276 h 18.566136 q 1.388296,0 2.147231,-0.81446 0.777445,-0.81447 0.777445,-2.18426 0,-0.66638 -0.203617,-1.2217 -0.203616,-0.55531 -0.592339,-0.96255 -0.370212,-0.40723 -0.92553,-0.62936 -0.536808,-0.22212 -1.20319,-0.22212 H 76.530491 q -1.166168,0 -2.517442,-0.40724 -1.351274,-0.42574 -2.517442,-1.35127 -1.147658,-0.92553 -1.925103,-2.42489 -0.758935,-1.49936 -0.758935,-3.6651 0,-2.165742 0.758935,-3.64659 0.777445,-1.499359 1.925103,-2.424889 1.166168,-0.944041 2.517442,-1.351274 1.351274,-0.425744 2.517442,-0.425744 H 92.912376 V 98.826 H 76.530491 q -1.369785,0 -2.14723,0.832977 -0.758935,0.832973 -0.758935,2.202763 0,1.38829 0.758935,2.20276 0.777445,0.79596 2.14723,0.79596 h 11.069341 0.03702 q 0.777445,0.0185 1.647443,0.22212 0.869999,0.18511 1.721487,0.59234 0.869998,0.40724 1.647443,1.0366 0.777446,0.61085 1.369785,1.48085 0.61085,0.86999 0.962552,1.99914 0.351701,1.12915 0.351701,2.55446 z" style="fill:#d50000;fill-opacity:1" id="path849" />
      <path d="m 123.1402,120.55745 h -17.36295 q -0.66638,0 -1.44383,-0.14809 -0.75893,-0.16659 -1.51787,-0.49978 -0.74042,-0.33319 -1.42531,-0.85149 -0.6849,-0.53681 -1.2217,-1.27723 -0.518302,-0.75894 -0.832982,-1.74 -0.31468,-0.99957 -0.31468,-2.23978 v -13.03147 q 0,-0.66638 0.148085,-1.425313 0.166595,-0.777446 0.499786,-1.51787 0.333191,-0.758934 0.870001,-1.443827 0.5368,-0.684892 1.27723,-1.203189 0.75893,-0.536808 1.74,-0.851488 0.98106,-0.31468 2.22127,-0.31468 H 123.1402 V 98.826 h -17.36295 q -0.94404,0 -1.44383,0.499786 -0.49979,0.499787 -0.49979,1.480844 v 12.99445 q 0,0.92553 0.49979,1.44383 0.5183,0.49978 1.44383,0.49978 h 17.36295 z" style="fill:#fff100;fill-opacity:1;stroke-width:0.94774562" id="path851" />
      <path d="m 153.77525,120.55745 h -4.81276 v -6.51573 H 132.0438 v 6.51573 h -4.81276 v -13.2721 q 0,-2.90617 0.99957,-5.34957 0.99957,-2.443398 2.77659,-4.201906 1.77702,-1.758507 4.20191,-2.739569 2.42489,-0.981062 5.29403,-0.981062 h 10.84722 q 0.49978,0 0.94404,0.185106 0.44425,0.185106 0.77744,0.518297 0.33319,0.333191 0.5183,0.777445 0.18511,0.444255 0.18511,0.944041 z M 132.0438,109.22896 h 16.91869 V 98.826 h -8.45935 q -0.22213,0 -0.94404,0.07404 -0.7034,0.05553 -1.64744,0.314681 -0.92553,0.259148 -1.96213,0.795957 -1.03659,0.53681 -1.90659,1.48085 -0.87,0.94404 -1.44383,2.36935 -0.55531,1.40681 -0.55531,3.42447 z" style="fill:#fff100;fill-opacity:1;stroke-width:0.94774562" id="path853" />
      <path d="m 185.87263,102.93535 q 0,1.64745 -0.40723,2.94319 -0.40723,1.29574 -1.11064,2.29532 -0.68489,0.98106 -1.59191,1.68446 -0.90702,0.7034 -1.90659,1.16617 -0.98106,0.44425 -1.99915,0.64787 -0.99957,0.20362 -1.88808,0.20362 l 10.05126,8.68147 h -7.44126 l -10.03275,-8.68147 h -3.46148 v -4.81276 h 10.88423 q 0.90702,-0.074 1.64745,-0.37021 0.75893,-0.31468 1.29574,-0.83298 0.55532,-0.5183 0.85149,-1.24021 0.29617,-0.74043 0.29617,-1.68447 v -3.035735 q 0,-0.407233 -0.11107,-0.61085 -0.0926,-0.222127 -0.25915,-0.31468 -0.14808,-0.111064 -0.33319,-0.129574 -0.16659,-0.01851 -0.31468,-0.01851 h -15.8821 v 21.73145 h -4.81275 V 96.438132 q 0,-0.499786 0.1851,-0.944041 0.18511,-0.444254 0.49979,-0.777445 0.33319,-0.333191 0.77744,-0.518297 0.44426,-0.185106 0.96256,-0.185106 h 18.26996 q 1.61042,0 2.72106,0.592339 1.11064,0.573829 1.79553,1.462338 0.7034,0.869998 0.99957,1.888082 0.31468,1.018083 0.31468,1.906592 z" style="fill:#fff100;fill-opacity:1;stroke-width:0.94774562" id="path855" />
    </g>
  </g>
</svg>
