<?xml version="1.0" encoding="UTF-8" standalone="no"?>
<svg
   xmlns:dc="http://purl.org/dc/elements/1.1/"
   xmlns:cc="http://creativecommons.org/ns#"
   xmlns:rdf="http://www.w3.org/1999/02/22-rdf-syntax-ns#"
   xmlns:svg="http://www.w3.org/2000/svg"
   xmlns="http://www.w3.org/2000/svg"
   id="svg977"
   version="1.1"
   viewBox="0 0 79.917099 11.026472"
   height="11.026472mm"
   width="79.917099mm">
  <defs
     id="defs971" />
  <metadata
     id="metadata974">
    <rdf:RDF>
      <cc:Work
         rdf:about="">
        <dc:format>image/svg+xml</dc:format>
        <dc:type
           rdf:resource="http://purl.org/dc/dcmitype/StillImage" />
        <dc:title></dc:title>
      </cc:Work>
    </rdf:RDF>
  </metadata>
  <g
     id="g976">
    <g
       aria-label="premio"
       transform="matrix(1.1846922,0,-0.11809016,0.84410111,0,0)"
       style="font-style:normal;font-weight:normal;font-size:11.25673866px;line-height:1.25;font-family:sans-serif;letter-spacing:0px;word-spacing:0px;fill:#fff100;fill-opacity:1;stroke:#fff100;stroke-width:0.20561464;stroke-miterlimit:4;stroke-dasharray:none;stroke-opacity:1"
       id="text1935">
      <path
         d="m 11.257389,3.3390765 h 1.688529 l -0.101311,0.484045 q 0.776723,-0.5966137 1.508419,-0.5966137 0.720439,0.011257 0.945576,0.5966137 0.225138,0.5853567 0.04503,1.4408781 l -0.506559,2.5440506 q -0.191367,0.96809 -0.686669,1.5647036 -0.484045,0.5853568 -1.204484,0.5853568 -0.641641,0 -1.204484,-0.6078705 L 11.212362,11.984345 H 9.5238327 Z m 1.159457,5.4820911 q 0.517816,0 0.709182,-0.9455763 L 13.666357,5.151431 q 0.18011,-0.8555214 -0.326448,-0.8555214 -0.270165,0 -0.641642,0.2476509 L 11.887773,8.629801 q 0.258908,0.1913666 0.529073,0.1913666 z"
         style="font-style:italic;font-variant:normal;font-weight:600;font-stretch:normal;font-size:11.25686073px;font-family:Oswald;-inkscape-font-specification:'Oswald, Semi-Bold Italic';font-variant-ligatures:normal;font-variant-caps:normal;font-variant-numeric:normal;font-feature-settings:normal;text-align:start;writing-mode:lr-tb;text-anchor:start;fill:#fff100;fill-opacity:1;stroke:#fff100;stroke-width:0.20561464;stroke-miterlimit:4;stroke-dasharray:none;stroke-opacity:1"
         id="path881" />
      <path
         d="m 16.820389,3.3390765 h 1.699786 l -0.21388,1.046888 q 0.450274,-0.5853568 0.821751,-0.8555214 0.382733,-0.2701647 0.810494,-0.2701647 0.101312,0 0.258908,0.022514 L 19.848485,5.0163487 Q 19.57832,4.8812664 19.263128,4.8812664 q -0.619127,0 -1.18197,0.6303842 L 17.214379,9.845542 h -1.699785 z"
         style="font-style:italic;font-variant:normal;font-weight:600;font-stretch:normal;font-size:11.25686073px;font-family:Oswald;-inkscape-font-specification:'Oswald, Semi-Bold Italic';font-variant-ligatures:normal;font-variant-caps:normal;font-variant-numeric:normal;font-feature-settings:normal;text-align:start;writing-mode:lr-tb;text-anchor:start;fill:#fff100;fill-opacity:1;stroke:#fff100;stroke-width:0.20561464;stroke-miterlimit:4;stroke-dasharray:none;stroke-opacity:1"
         id="path883" />
      <path
         d="m 21.673679,9.9581106 q -1.069402,0 -1.50842,-0.5853568 Q 19.726242,8.787397 19.940122,7.6842247 l 0.439018,-2.183831 q 0.225137,-1.1031723 0.900549,-1.6885291 0.686668,-0.5853568 1.744813,-0.5853568 1.091916,0 1.474649,0.5853568 0.39399,0.5853568 0.157596,1.7335566 L 24.43161,6.6823641 h -2.600335 l -0.247651,1.2607684 q -0.09005,0.4165038 0,0.6078705 0.101312,0.1913666 0.348963,0.1913666 0.506558,0 0.652897,-0.7316959 L 22.70931,7.3802895 h 1.57596 l -0.112568,0.562843 Q 23.970078,8.9224794 23.328437,9.440295 22.686796,9.9581106 21.673679,9.9581106 Z m 1.339566,-4.0862405 0.123826,-0.6303842 q 0.0788,-0.4277607 -0.01126,-0.6078705 -0.0788,-0.1913666 -0.348963,-0.1913666 -0.258908,0 -0.416504,0.2026235 -0.157596,0.2026235 -0.258908,0.7204391 l -0.101311,0.5065587 z"
         style="font-style:italic;font-variant:normal;font-weight:600;font-stretch:normal;font-size:11.25686073px;font-family:Oswald;-inkscape-font-specification:'Oswald, Semi-Bold Italic';font-variant-ligatures:normal;font-variant-caps:normal;font-variant-numeric:normal;font-feature-settings:normal;text-align:start;writing-mode:lr-tb;text-anchor:start;fill:#fff100;fill-opacity:1;stroke:#fff100;stroke-width:0.20561464;stroke-miterlimit:4;stroke-dasharray:none;stroke-opacity:1"
         id="path885" />
      <path
         d="m 26.119963,3.3390765 h 1.654758 l -0.112568,0.5403293 q 0.78798,-0.6641548 1.666015,-0.6641548 0.382733,0 0.630384,0.2026235 0.247651,0.1913666 0.315193,0.5853567 0.855521,-0.7879802 1.812354,-0.7879802 0.562843,0 0.810494,0.4165038 0.247651,0.405247 0.101312,1.1481998 L 31.984787,9.845542 h -1.643501 l 0.979347,-4.8967345 q 0.06754,-0.3151921 -0.02251,-0.4390175 -0.0788,-0.1350824 -0.292679,-0.1350824 -0.146339,0 -0.348962,0.078798 -0.202624,0.078798 -0.39399,0.2251372 L 30.239974,4.7799546 29.226856,9.845542 H 27.583355 L 28.562702,4.9488075 Q 28.630243,4.6336154 28.540188,4.50979 28.46139,4.3747076 28.24751,4.3747076 q -0.14634,0 -0.348963,0.078798 -0.202624,0.078798 -0.39399,0.2251372 L 26.468926,9.845542 h -1.654759 z"
         style="font-style:italic;font-variant:normal;font-weight:600;font-stretch:normal;font-size:11.25686073px;font-family:Oswald;-inkscape-font-specification:'Oswald, Semi-Bold Italic';font-variant-ligatures:normal;font-variant-caps:normal;font-variant-numeric:normal;font-feature-settings:normal;text-align:start;writing-mode:lr-tb;text-anchor:start;fill:#fff100;fill-opacity:1;stroke:#fff100;stroke-width:0.20561464;stroke-miterlimit:4;stroke-dasharray:none;stroke-opacity:1"
         id="path887" />
      <path
         d="m 34.881495,0.99764942 h 1.711043 L 36.344887,2.2696747 H 34.633844 Z M 34.431221,3.3390765 h 1.699786 L 34.825211,9.845542 h -1.699786 z"
         style="font-style:italic;font-variant:normal;font-weight:600;font-stretch:normal;font-size:11.25686073px;font-family:Oswald;-inkscape-font-specification:'Oswald, Semi-Bold Italic';font-variant-ligatures:normal;font-variant-caps:normal;font-variant-numeric:normal;font-feature-settings:normal;text-align:start;writing-mode:lr-tb;text-anchor:start;fill:#fff100;fill-opacity:1;stroke:#fff100;stroke-width:0.20561464;stroke-miterlimit:4;stroke-dasharray:none;stroke-opacity:1"
         id="path889" />
      <path
         d="m 38.042562,9.9581106 q -1.058145,0 -1.519677,-0.5628431 -0.450274,-0.562843 -0.236394,-1.6322448 l 0.472788,-2.341427 q 0.213881,-1.0694018 0.889292,-1.6322448 0.686669,-0.5628431 1.744814,-0.5628431 1.058145,0 1.508419,0.5628431 0.461531,0.562843 0.247651,1.6322448 l -0.472788,2.341427 q -0.21388,1.0694018 -0.900549,1.6322448 -0.675412,0.5628431 -1.733556,0.5628431 z m 0.236394,-1.1481998 q 0.292678,0 0.450274,-0.2251372 0.157596,-0.2363941 0.247651,-0.6979254 l 0.517816,-2.5778211 q 0.09005,-0.4615313 0.02251,-0.6979254 -0.05628,-0.2363941 -0.348962,-0.2363941 -0.303936,0 -0.461532,0.247651 -0.157596,0.236394 -0.247651,0.6866685 L 37.94125,7.8868482 q -0.09005,0.4502744 -0.03377,0.6866685 0.06754,0.2363941 0.371477,0.2363941 z"
         style="font-style:italic;font-variant:normal;font-weight:600;font-stretch:normal;font-size:11.25686073px;font-family:Oswald;-inkscape-font-specification:'Oswald, Semi-Bold Italic';font-variant-ligatures:normal;font-variant-caps:normal;font-variant-numeric:normal;font-feature-settings:normal;text-align:start;writing-mode:lr-tb;text-anchor:start;fill:#fff100;fill-opacity:1;stroke:#fff100;stroke-width:0.20561464;stroke-miterlimit:4;stroke-dasharray:none;stroke-opacity:1"
         id="path891" />
    </g>
    <path
       style="opacity:1;fill:#d40000;fill-opacity:1;stroke:none;stroke-width:4.01709795;stroke-linecap:square;stroke-linejoin:round;stroke-miterlimit:4;stroke-dasharray:none;stroke-dashoffset:0;stroke-opacity:1;paint-order:normal"
       d="m 13.019751,9.047049 -0.293712,1.099914 h 65.933309 l 0.293706,-1.099914 z"
       id="rect837" />
    <g
       aria-label="Opony-Autoserwis"
       transform="matrix(1.1846922,0,-0.11809016,0.84410111,0,0)"
       style="font-style:normal;font-weight:normal;font-size:3.67820644px;line-height:1.25;font-family:sans-serif;letter-spacing:0px;word-spacing:0px;fill:#fff100;fill-opacity:1;stroke:#fff100;stroke-width:0.0671858;stroke-miterlimit:4;stroke-dasharray:none;stroke-opacity:1"
       id="text852">
      <path
         d="m 42.592372,9.8391238 q -0.474494,0 -0.62898,-0.2464425 -0.150808,-0.2501207 -0.05517,-0.731971 L 42.128913,7.74988 q 0.09931,-0.4818503 0.349434,-0.7246145 0.25012,-0.2427643 0.724614,-0.2427643 0.470816,0 0.625302,0.2464425 0.154486,0.2427643 0.05885,0.7209363 L 43.66642,8.8643886 q -0.09563,0.478172 -0.349433,0.7282927 -0.253799,0.2464425 -0.724615,0.2464425 z m 0.0846,-0.434033 q 0.154486,0 0.228051,-0.1029909 0.07724,-0.1066691 0.114026,-0.2905815 l 0.279547,-1.4087683 q 0.03678,-0.1839123 0.0037,-0.2832249 -0.0331,-0.1029909 -0.187591,-0.1029909 -0.154486,0 -0.228051,0.1029909 -0.07357,0.099313 -0.110347,0.2832249 l -0.279547,1.4087683 q -0.03678,0.1875906 -0.0074,0.2905815 0.02943,0.1029909 0.187591,0.1029909 z"
         style="font-style:italic;font-variant:normal;font-weight:600;font-stretch:normal;font-size:3.67824626px;font-family:Oswald;-inkscape-font-specification:'Oswald, Semi-Bold Italic';font-variant-ligatures:normal;font-variant-caps:normal;font-variant-numeric:normal;font-feature-settings:normal;text-align:start;writing-mode:lr-tb;text-anchor:start;fill:#fff100;fill-opacity:1;stroke:#fff100;stroke-width:0.0671858;stroke-miterlimit:4;stroke-dasharray:none;stroke-opacity:1"
         id="path894" />
      <path
         d="m 44.277641,7.6726368 h 0.551737 l -0.0331,0.1581646 q 0.253799,-0.1949471 0.492885,-0.1949471 0.235408,0.00368 0.308973,0.1949471 0.07357,0.1912688 0.01471,0.4708155 l -0.165521,0.8312837 q -0.06253,0.3163291 -0.224373,0.5112762 -0.158165,0.1912688 -0.393573,0.1912688 -0.20966,0 -0.393572,-0.1986253 L 44.262928,10.49753 h -0.551737 z m 0.37886,1.7913059 q 0.169199,0 0.231729,-0.3089727 l 0.176556,-0.8901356 q 0.05885,-0.2795467 -0.106669,-0.2795467 -0.08828,0 -0.20966,0.080921 l -0.264834,1.3352033 q 0.0846,0.06253 0.172878,0.06253 z"
         style="font-style:italic;font-variant:normal;font-weight:600;font-stretch:normal;font-size:3.67824626px;font-family:Oswald;-inkscape-font-specification:'Oswald, Semi-Bold Italic';font-variant-ligatures:normal;font-variant-caps:normal;font-variant-numeric:normal;font-feature-settings:normal;text-align:start;writing-mode:lr-tb;text-anchor:start;fill:#fff100;fill-opacity:1;stroke:#fff100;stroke-width:0.0671858;stroke-miterlimit:4;stroke-dasharray:none;stroke-opacity:1"
         id="path896" />
      <path
         d="m 46.327114,9.8354456 q -0.345755,0 -0.496563,-0.1839123 -0.14713,-0.1839123 -0.07724,-0.5333457 l 0.154486,-0.7650752 q 0.06989,-0.3494334 0.290582,-0.5333457 0.224373,-0.1839124 0.570128,-0.1839124 0.345755,0 0.492885,0.1839124 0.150808,0.1839123 0.08092,0.5333457 l -0.154486,0.7650752 q -0.06989,0.3494334 -0.29426,0.5333457 -0.220695,0.1839123 -0.56645,0.1839123 z m 0.07724,-0.3751811 q 0.09564,0 0.14713,-0.073565 0.0515,-0.077243 0.08092,-0.2280513 l 0.169199,-0.8423184 q 0.02943,-0.1508081 0.0074,-0.2280513 -0.01839,-0.077243 -0.114025,-0.077243 -0.09931,0 -0.150808,0.080921 -0.0515,0.077243 -0.08092,0.224373 L 46.29401,9.1586483 q -0.02943,0.1471298 -0.01103,0.224373 0.02207,0.077243 0.121382,0.077243 z"
         style="font-style:italic;font-variant:normal;font-weight:600;font-stretch:normal;font-size:3.67824626px;font-family:Oswald;-inkscape-font-specification:'Oswald, Semi-Bold Italic';font-variant-ligatures:normal;font-variant-caps:normal;font-variant-numeric:normal;font-feature-settings:normal;text-align:start;writing-mode:lr-tb;text-anchor:start;fill:#fff100;fill-opacity:1;stroke:#fff100;stroke-width:0.0671858;stroke-miterlimit:4;stroke-dasharray:none;stroke-opacity:1"
         id="path898" />
      <path
         d="m 47.81939,7.6726368 h 0.551737 l -0.04414,0.2133383 q 0.308973,-0.2501208 0.56645,-0.2501208 0.183912,0 0.253799,0.1360952 0.06989,0.1360951 0.02575,0.3494333 l -0.334721,1.6772803 h -0.555415 l 0.316329,-1.5890023 q 0.01839,-0.088278 -0.0037,-0.1287387 -0.01839,-0.044139 -0.08828,-0.044139 -0.0846,0 -0.228051,0.088278 l -0.334721,1.673602 h -0.551737 z"
         style="font-style:italic;font-variant:normal;font-weight:600;font-stretch:normal;font-size:3.67824626px;font-family:Oswald;-inkscape-font-specification:'Oswald, Semi-Bold Italic';font-variant-ligatures:normal;font-variant-caps:normal;font-variant-numeric:normal;font-feature-settings:normal;text-align:start;writing-mode:lr-tb;text-anchor:start;fill:#fff100;fill-opacity:1;stroke:#fff100;stroke-width:0.0671858;stroke-miterlimit:4;stroke-dasharray:none;stroke-opacity:1"
         id="path900" />
      <path
         d="m 49.199422,10.008323 q 0.18759,0 0.275868,-0.040461 0.09196,-0.036783 0.110348,-0.1360951 0.01103,-0.047817 0.0074,-0.1508081 -0.0037,-0.1029909 -0.01103,-0.2133383 l -0.12506,-1.7949842 h 0.529668 l 0.0074,1.3057774 0.48185,-1.3057774 h 0.529668 l -0.934275,2.1922348 q -0.12506,0.2942594 -0.331042,0.4119634 -0.202304,0.121382 -0.50392,0.121382 H 49.1185 Z"
         style="font-style:italic;font-variant:normal;font-weight:600;font-stretch:normal;font-size:3.67824626px;font-family:Oswald;-inkscape-font-specification:'Oswald, Semi-Bold Italic';font-variant-ligatures:normal;font-variant-caps:normal;font-variant-numeric:normal;font-feature-settings:normal;text-align:start;writing-mode:lr-tb;text-anchor:start;fill:#fff100;fill-opacity:1;stroke:#fff100;stroke-width:0.0671858;stroke-miterlimit:4;stroke-dasharray:none;stroke-opacity:1"
         id="path902" />
      <path
         d="m 51.125156,8.3641471 h 0.92324 l -0.07356,0.3641464 h -0.92324 z"
         style="font-style:italic;font-variant:normal;font-weight:600;font-stretch:normal;font-size:3.67824626px;font-family:Oswald;-inkscape-font-specification:'Oswald, Semi-Bold Italic';font-variant-ligatures:normal;font-variant-caps:normal;font-variant-numeric:normal;font-feature-settings:normal;text-align:start;writing-mode:lr-tb;text-anchor:start;fill:#fff100;fill-opacity:1;stroke:#fff100;stroke-width:0.0671858;stroke-miterlimit:4;stroke-dasharray:none;stroke-opacity:1"
         id="path904" />
      <path
         d="m 53.229458,6.8192837 h 0.673119 l -0.02207,2.9793794 h -0.559093 l 0.02207,-0.6547278 h -0.470816 l -0.246442,0.6547278 h -0.570129 z m 0.128739,1.9494705 0.05885,-1.1991083 -0.415641,1.1991083 z"
         style="font-style:italic;font-variant:normal;font-weight:600;font-stretch:normal;font-size:3.67824626px;font-family:Oswald;-inkscape-font-specification:'Oswald, Semi-Bold Italic';font-variant-ligatures:normal;font-variant-caps:normal;font-variant-numeric:normal;font-feature-settings:normal;text-align:start;writing-mode:lr-tb;text-anchor:start;fill:#fff100;fill-opacity:1;stroke:#fff100;stroke-width:0.0671858;stroke-miterlimit:4;stroke-dasharray:none;stroke-opacity:1"
         id="path906" />
      <path
         d="m 54.495177,9.8354456 q -0.183913,0 -0.253799,-0.1360951 -0.06989,-0.1360951 -0.02943,-0.3494334 L 54.55035,7.6726368 h 0.555416 l -0.320008,1.6000371 q -0.01839,0.088278 0.0037,0.1324169 0.02207,0.044139 0.09564,0.044139 0.07724,0 0.20966,-0.080921 l 0.342077,-1.6956715 h 0.555415 l -0.426677,2.1260263 h -0.555415 l 0.04046,-0.1986253 q -0.301616,0.2354078 -0.555415,0.2354078 z"
         style="font-style:italic;font-variant:normal;font-weight:600;font-stretch:normal;font-size:3.67824626px;font-family:Oswald;-inkscape-font-specification:'Oswald, Semi-Bold Italic';font-variant-ligatures:normal;font-variant-caps:normal;font-variant-numeric:normal;font-feature-settings:normal;text-align:start;writing-mode:lr-tb;text-anchor:start;fill:#fff100;fill-opacity:1;stroke:#fff100;stroke-width:0.0671858;stroke-miterlimit:4;stroke-dasharray:none;stroke-opacity:1"
         id="path908" />
      <path
         d="m 56.581604,9.8244109 q -0.320007,0 -0.415642,-0.1434516 -0.09563,-0.1434516 -0.03678,-0.4377113 l 0.242764,-1.2064648 h -0.20966 l 0.07357,-0.3641464 h 0.20966 L 56.57057,7.032622 h 0.562771 l -0.12506,0.6400148 h 0.308972 l -0.07356,0.3641464 h -0.308973 l -0.23173,1.1512911 q -0.03678,0.1875905 0.150808,0.1875905 0.09931,0 0.161843,-0.014713 l -0.08828,0.4340331 q -0.198625,0.029426 -0.345755,0.029426 z"
         style="font-style:italic;font-variant:normal;font-weight:600;font-stretch:normal;font-size:3.67824626px;font-family:Oswald;-inkscape-font-specification:'Oswald, Semi-Bold Italic';font-variant-ligatures:normal;font-variant-caps:normal;font-variant-numeric:normal;font-feature-settings:normal;text-align:start;writing-mode:lr-tb;text-anchor:start;fill:#fff100;fill-opacity:1;stroke:#fff100;stroke-width:0.0671858;stroke-miterlimit:4;stroke-dasharray:none;stroke-opacity:1"
         id="path911" />
      <path
         d="m 57.879106,9.8354456 q -0.345755,0 -0.496563,-0.1839123 Q 57.235413,9.467621 57.3053,9.1181876 l 0.154486,-0.7650752 q 0.06989,-0.3494334 0.290581,-0.5333457 0.224373,-0.1839124 0.570129,-0.1839124 0.345755,0 0.492885,0.1839124 0.150808,0.1839123 0.08092,0.5333457 l -0.154486,0.7650752 q -0.06989,0.3494334 -0.29426,0.5333457 -0.220695,0.1839123 -0.56645,0.1839123 z m 0.07724,-0.3751811 q 0.09563,0 0.14713,-0.073565 0.0515,-0.077243 0.08092,-0.2280513 L 58.3536,8.3163299 q 0.02943,-0.1508081 0.0074,-0.2280513 -0.01839,-0.077243 -0.114025,-0.077243 -0.09931,0 -0.150808,0.080921 -0.0515,0.077243 -0.08092,0.224373 l -0.169199,0.8423184 q -0.02943,0.1471298 -0.01103,0.224373 0.02207,0.077243 0.121382,0.077243 z"
         style="font-style:italic;font-variant:normal;font-weight:600;font-stretch:normal;font-size:3.67824626px;font-family:Oswald;-inkscape-font-specification:'Oswald, Semi-Bold Italic';font-variant-ligatures:normal;font-variant-caps:normal;font-variant-numeric:normal;font-feature-settings:normal;text-align:start;writing-mode:lr-tb;text-anchor:start;fill:#fff100;fill-opacity:1;stroke:#fff100;stroke-width:0.0671858;stroke-miterlimit:4;stroke-dasharray:none;stroke-opacity:1"
         id="path913" />
      <path
         d="m 59.555295,9.8354456 q -0.275869,0 -0.430355,-0.1324169 -0.150808,-0.1360951 -0.191269,-0.4156418 l 0.422998,-0.1618428 q 0.04414,0.3273639 0.246443,0.3273639 0.07724,0 0.121382,-0.033104 0.04782,-0.036783 0.05885,-0.099313 0.01839,-0.0846 -0.02207,-0.1508081 -0.04046,-0.066208 -0.172878,-0.2023035 L 59.422878,8.7981802 q -0.143452,-0.1508081 -0.202304,-0.2795468 -0.05885,-0.1287386 -0.02575,-0.3089726 0.03678,-0.1691994 0.147129,-0.297938 0.110348,-0.1324169 0.268512,-0.2023035 0.161843,-0.073565 0.334721,-0.073565 0.257477,0 0.393572,0.1471299 0.139774,0.1434516 0.150808,0.4046071 l -0.393572,0.1618428 q -0.0074,-0.1324169 -0.06253,-0.224373 -0.05517,-0.095634 -0.154487,-0.095634 -0.06621,0 -0.114025,0.040461 -0.04782,0.036782 -0.05885,0.099313 -0.01471,0.06253 0.0331,0.1360952 0.04782,0.069887 0.158165,0.1839123 l 0.165521,0.1765558 q 0.143451,0.1471298 0.213338,0.283225 0.06989,0.1360951 0.0331,0.3163291 -0.03678,0.1765559 -0.150808,0.3052945 -0.110347,0.1287386 -0.27219,0.1986253 -0.158165,0.066208 -0.331042,0.066208 z"
         style="font-style:italic;font-variant:normal;font-weight:600;font-stretch:normal;font-size:3.67824626px;font-family:Oswald;-inkscape-font-specification:'Oswald, Semi-Bold Italic';font-variant-ligatures:normal;font-variant-caps:normal;font-variant-numeric:normal;font-feature-settings:normal;text-align:start;writing-mode:lr-tb;text-anchor:start;fill:#fff100;fill-opacity:1;stroke:#fff100;stroke-width:0.0671858;stroke-miterlimit:4;stroke-dasharray:none;stroke-opacity:1"
         id="path915" />
      <path
         d="m 61.122629,9.8354456 q -0.349434,0 -0.492885,-0.1912688 Q 60.486292,9.452908 60.556179,9.0924399 L 60.69963,8.3788601 q 0.07357,-0.3604682 0.29426,-0.551737 0.224373,-0.1912688 0.570128,-0.1912688 0.35679,0 0.481851,0.1912688 0.128738,0.1912688 0.05149,0.56645 l -0.07357,0.3715028 h -0.849675 l -0.08092,0.4119636 q -0.02943,0.1360951 0,0.1986253 0.0331,0.06253 0.114025,0.06253 0.165522,0 0.213339,-0.239086 l 0.04046,-0.2059818 h 0.514955 l -0.03678,0.1839123 q -0.06621,0.3200074 -0.275868,0.4892068 -0.20966,0.1691993 -0.540702,0.1691993 z m 0.437711,-1.3352034 0.04046,-0.2059818 q 0.02575,-0.1397733 -0.0037,-0.1986253 -0.02575,-0.06253 -0.114026,-0.06253 -0.0846,0 -0.136095,0.066209 -0.0515,0.066208 -0.0846,0.2354077 l -0.0331,0.1655211 z"
         style="font-style:italic;font-variant:normal;font-weight:600;font-stretch:normal;font-size:3.67824626px;font-family:Oswald;-inkscape-font-specification:'Oswald, Semi-Bold Italic';font-variant-ligatures:normal;font-variant-caps:normal;font-variant-numeric:normal;font-feature-settings:normal;text-align:start;writing-mode:lr-tb;text-anchor:start;fill:#fff100;fill-opacity:1;stroke:#fff100;stroke-width:0.0671858;stroke-miterlimit:4;stroke-dasharray:none;stroke-opacity:1"
         id="path917" />
      <path
         d="m 62.582837,7.6726368 h 0.555415 l -0.06989,0.3420769 q 0.14713,-0.1912688 0.268512,-0.2795467 0.125061,-0.088278 0.264834,-0.088278 0.0331,0 0.0846,0.00736 l -0.114026,0.5664499 q -0.08828,-0.044139 -0.191269,-0.044139 -0.202303,0 -0.386216,0.2059818 L 62.711575,9.7986631 H 62.15616 Z"
         style="font-style:italic;font-variant:normal;font-weight:600;font-stretch:normal;font-size:3.67824626px;font-family:Oswald;-inkscape-font-specification:'Oswald, Semi-Bold Italic';font-variant-ligatures:normal;font-variant-caps:normal;font-variant-numeric:normal;font-feature-settings:normal;text-align:start;writing-mode:lr-tb;text-anchor:start;fill:#fff100;fill-opacity:1;stroke:#fff100;stroke-width:0.0671858;stroke-miterlimit:4;stroke-dasharray:none;stroke-opacity:1"
         id="path919" />
      <path
         d="m 63.826601,7.6726368 h 0.459781 l -0.08828,1.2837079 0.448746,-1.2837079 h 0.404607 l -0.08828,1.3020992 0.448746,-1.3020992 h 0.437711 l -0.75404,2.1260263 h -0.474494 l 0.04782,-1.2616384 -0.478172,1.2616384 h -0.474493 z"
         style="font-style:italic;font-variant:normal;font-weight:600;font-stretch:normal;font-size:3.67824626px;font-family:Oswald;-inkscape-font-specification:'Oswald, Semi-Bold Italic';font-variant-ligatures:normal;font-variant-caps:normal;font-variant-numeric:normal;font-feature-settings:normal;text-align:start;writing-mode:lr-tb;text-anchor:start;fill:#fff100;fill-opacity:1;stroke:#fff100;stroke-width:0.0671858;stroke-miterlimit:4;stroke-dasharray:none;stroke-opacity:1"
         id="path921" />
      <path
         d="m 66.278898,6.9075616 h 0.559093 l -0.08092,0.4156418 h -0.559094 z m -0.14713,0.7650752 h 0.555415 l -0.426677,2.1260263 h -0.555415 z"
         style="font-style:italic;font-variant:normal;font-weight:600;font-stretch:normal;font-size:3.67824626px;font-family:Oswald;-inkscape-font-specification:'Oswald, Semi-Bold Italic';font-variant-ligatures:normal;font-variant-caps:normal;font-variant-numeric:normal;font-feature-settings:normal;text-align:start;writing-mode:lr-tb;text-anchor:start;fill:#fff100;fill-opacity:1;stroke:#fff100;stroke-width:0.0671858;stroke-miterlimit:4;stroke-dasharray:none;stroke-opacity:1"
         id="path923" />
      <path
         d="m 67.256623,9.8354456 q -0.275868,0 -0.430355,-0.1324169 Q 66.67546,9.5669336 66.634999,9.2873869 l 0.422999,-0.1618428 q 0.04414,0.3273639 0.246442,0.3273639 0.07724,0 0.121382,-0.033104 0.04782,-0.036783 0.05885,-0.099313 0.01839,-0.0846 -0.02207,-0.1508081 -0.04046,-0.066208 -0.172878,-0.2023035 L 67.124206,8.7981802 q -0.143451,-0.1508081 -0.202303,-0.2795468 -0.05885,-0.1287386 -0.02575,-0.3089726 0.03678,-0.1691994 0.14713,-0.297938 0.110347,-0.1324169 0.268512,-0.2023035 0.161843,-0.073565 0.33472,-0.073565 0.257477,0 0.393572,0.1471299 0.139774,0.1434516 0.150809,0.4046071 l -0.393573,0.1618428 q -0.0074,-0.1324169 -0.06253,-0.224373 -0.05517,-0.095634 -0.154486,-0.095634 -0.06621,0 -0.114026,0.040461 -0.04782,0.036782 -0.05885,0.099313 -0.01471,0.06253 0.0331,0.1360952 0.04782,0.069887 0.158165,0.1839123 l 0.165521,0.1765558 q 0.143452,0.1471298 0.213338,0.283225 0.06989,0.1360951 0.0331,0.3163291 -0.03678,0.1765559 -0.150808,0.3052945 -0.110347,0.1287386 -0.27219,0.1986253 -0.158164,0.066208 -0.331042,0.066208 z"
         style="font-style:italic;font-variant:normal;font-weight:600;font-stretch:normal;font-size:3.67824626px;font-family:Oswald;-inkscape-font-specification:'Oswald, Semi-Bold Italic';font-variant-ligatures:normal;font-variant-caps:normal;font-variant-numeric:normal;font-feature-settings:normal;text-align:start;writing-mode:lr-tb;text-anchor:start;fill:#fff100;fill-opacity:1;stroke:#fff100;stroke-width:0.0671858;stroke-miterlimit:4;stroke-dasharray:none;stroke-opacity:1"
         id="path925" />
    </g>
    <path
       style="fill:none;stroke:#e6e6e6;stroke-width:1.4322561;stroke-linecap:round;stroke-linejoin:round;stroke-miterlimit:4;stroke-dasharray:none;stroke-opacity:1"
       d="M 10.282958,5.383195 H 8.144605 L 7.257416,4.587"
       id="path912" />
    <path
       style="fill:none;stroke:#e6e6e6;stroke-width:1.4322561;stroke-linecap:round;stroke-linejoin:round;stroke-miterlimit:4;stroke-dasharray:none;stroke-opacity:1"
       d="m 4.587832,5.242919 4.061403,4.214732 -4.809503,0.0036"
       id="path918" />
    <path
       id="path920"
       d="M 3.950877,6.926303 0.723198,10.302952"
       style="fill:none;stroke:#e6e6e6;stroke-width:1.4322561;stroke-linecap:round;stroke-linejoin:round;stroke-miterlimit:4;stroke-dasharray:none;stroke-opacity:1" />
    <path
       style="fill:none;stroke:#e6e6e6;stroke-width:1.4322561;stroke-linecap:square;stroke-linejoin:round;stroke-miterlimit:4;stroke-dasharray:none;stroke-opacity:1"
       d="M 3.950877,6.926303 1.542141,9.438511"
       id="path922" />
    <path
       id="path914"
       d="m 3.561882,5.007325 a 1.2311242,1.2311242 0 0 0 -1e-6,-1.741166 1.2311242,1.2311242 0 0 0 -1.741164,1e-6 1.2311242,1.2311242 0 0 0 -0.301136,1.243587 L 2.348239,3.681088 3.146952,4.479801 2.317336,5.309418 A 1.2311242,1.2311242 0 0 0 3.561882,5.007325 Z"
       style="opacity:1;fill:#d50000;fill-opacity:1;stroke:#e6e6e6;stroke-width:0.19892445;stroke-linecap:round;stroke-linejoin:round;stroke-miterlimit:4;stroke-dasharray:none;stroke-dashoffset:0;stroke-opacity:1;paint-order:normal" />
    <path
       style="opacity:1;fill:#d50000;fill-opacity:1;stroke:#e6e6e6;stroke-width:0.19892445;stroke-linecap:round;stroke-linejoin:round;stroke-miterlimit:4;stroke-dasharray:none;stroke-dashoffset:0;stroke-opacity:1;paint-order:normal"
       d="m 11.243843,4.153582 a 1.2311242,1.2311242 0 0 0 -1.23119,1.23119 1.2311242,1.2311242 0 0 0 1.23119,1.231189 1.2311242,1.2311242 0 0 0 1.092285,-0.666414 H 11.164227 V 4.819996 h 1.173255 A 1.2311242,1.2311242 0 0 0 11.243843,4.153582 Z"
       id="path910" />
    <circle
       style="opacity:1;fill:#d50000;fill-opacity:1;stroke:#e6e6e6;stroke-width:0.59677339;stroke-linecap:round;stroke-linejoin:round;stroke-miterlimit:4;stroke-dasharray:none;stroke-dashoffset:0;stroke-opacity:1;paint-order:normal"
       id="circle908"
       cx="9.4858103"
       cy="1.2779891"
       r="0.97960228" />
    <path
       id="path916"
       d="M 3.456385,3.35611 5.83287,0.865883 8.592842,3.781585"
       style="fill:none;stroke:#e6e6e6;stroke-width:1.4322561;stroke-linecap:round;stroke-linejoin:round;stroke-miterlimit:4;stroke-dasharray:none;stroke-opacity:1" />
    <g
       id="g888"
       transform="matrix(0.75184051,0,0,0.75184051,-10.081117,-16.946343)">
      <circle
         style="opacity:1;fill:#d50000;fill-opacity:1;stroke:#d50000;stroke-width:0.546;stroke-linecap:round;stroke-linejoin:round;stroke-miterlimit:4;stroke-dasharray:none;stroke-dashoffset:0;stroke-opacity:1;paint-order:normal"
         id="path1565"
         cx="26.02537"
         cy="24.239626"
         r="1.3029389" />
      <path
         style="opacity:1;fill:#d50000;fill-opacity:1;stroke:none;stroke-width:0.68619061;stroke-linecap:round;stroke-linejoin:round;stroke-miterlimit:4;stroke-dasharray:none;stroke-dashoffset:0;stroke-opacity:1;paint-order:normal"
         d="m 28.363675,28.064362 a 1.6374806,1.6374806 0 0 0 -1.637568,1.637569 1.6374806,1.6374806 0 0 0 1.637568,1.637566 1.6374806,1.6374806 0 0 0 1.452814,-0.886376 H 28.25778 V 28.95074 h 1.56051 a 1.6374806,1.6374806 0 0 0 -1.454615,-0.886378 z"
         id="circle1567" />
      <path
         style="fill:none;stroke:#d50000;stroke-width:1.66499996;stroke-linecap:round;stroke-linejoin:round;stroke-miterlimit:4;stroke-dasharray:none;stroke-opacity:1"
         d="M 27.085631,29.699833 H 24.241473 L 23.061451,28.640839"
         id="path1895" />
      <path
         id="path1903"
         d="m 18.146134,29.1999 a 1.6374806,1.6374806 0 0 0 -1e-6,-2.315871 1.6374806,1.6374806 0 0 0 -2.315869,10e-7 1.6374806,1.6374806 0 0 0 -0.400532,1.654057 l 1.102173,-1.102174 1.062344,1.062344 -1.103447,1.103447 A 1.6374806,1.6374806 0 0 0 18.146134,29.1999 Z"
         style="opacity:1;fill:#d50000;fill-opacity:1;stroke:none;stroke-width:0.68619061;stroke-linecap:round;stroke-linejoin:round;stroke-miterlimit:4;stroke-dasharray:none;stroke-dashoffset:0;stroke-opacity:1;paint-order:normal" />
      <path
         id="path1914"
         d="m 18.005816,27.00367 3.160889,-3.312175 3.670955,3.878086"
         style="fill:none;stroke:#d50000;stroke-width:1.66499996;stroke-linecap:round;stroke-linejoin:round;stroke-miterlimit:4;stroke-dasharray:none;stroke-opacity:1" />
      <path
         style="fill:none;stroke:#d50000;stroke-width:1.66502297;stroke-linecap:round;stroke-linejoin:round;stroke-miterlimit:4;stroke-dasharray:none;stroke-opacity:1"
         d="m 19.510719,29.513256 5.401948,5.605886 -6.396973,0.0048"
         id="path1916" />
      <path
         id="path1918"
         d="m 18.663524,31.752274 -4.293037,4.491177"
         style="fill:none;stroke:#d50000;stroke-width:1.66499996;stroke-linecap:round;stroke-linejoin:round;stroke-miterlimit:4;stroke-dasharray:none;stroke-opacity:1" />
      <path
         style="fill:none;stroke:#d50000;stroke-width:1.66499996;stroke-linecap:square;stroke-linejoin:round;stroke-miterlimit:4;stroke-dasharray:none;stroke-opacity:1"
         d="m 18.663524,31.752274 -3.203785,3.341411"
         id="path1920" />
    </g>
  </g>
</svg>
